<svg width="32" height="32" viewBox="0 0 32 32" fill="none" xmlns="http://www.w3.org/2000/svg">
<rect width="32" height="32" rx="16" fill="#00A9B8"/>
<path d="M11.8546 15.8824C11.6233 15.9009 11.4028 15.9184 11.1825 15.9363C10.7879 15.9683 10.3934 16.0007 9.99878 16.0328C9.55548 16.0688 9.11205 16.105 8.66875 16.1409C8.30606 16.1703 7.94351 16.2033 7.58043 16.2274C7.28186 16.2473 7.02129 16.0148 7.00137 15.7217C6.98052 15.4157 7.20019 15.1585 7.5076 15.133C8.18205 15.0771 8.85662 15.0232 9.5312 14.9681C10.2291 14.9111 10.9269 14.8535 11.6249 14.7964C11.8604 14.7772 12.0957 14.7577 12.3315 14.7419C12.3923 14.7378 12.4269 14.7182 12.4557 14.6603C13.1279 13.3077 13.8282 11.9695 14.5934 10.6658C14.8231 10.2744 15.0644 9.88966 15.3002 9.50178C15.3107 9.48455 15.3201 9.46653 15.3372 9.43611C15.2108 9.44917 15.0975 9.46 14.9844 9.47254C14.5402 9.52163 14.0961 9.57124 13.652 9.62072C13.174 9.67398 12.6959 9.72542 12.2182 9.78143C12.039 9.80245 11.8596 9.82699 11.6832 9.86355C11.5954 9.8817 11.5105 9.92387 11.4308 9.96695C11.0901 10.1513 10.9713 10.4529 10.9866 10.8192C10.997 11.0716 11.0597 11.3141 11.1442 11.5514C11.251 11.8511 11.1068 12.163 10.8124 12.2678C10.5181 12.3727 10.2043 12.2224 10.0979 11.9223C9.96395 11.5446 9.87595 11.1583 9.87634 10.7551C9.87727 9.86538 10.3604 9.17696 11.2028 8.86232C11.4602 8.7661 11.7276 8.72446 11.9993 8.69639C12.4374 8.65109 12.8751 8.60056 13.313 8.55212C13.7551 8.5033 14.1971 8.45447 14.6392 8.40551C15.0748 8.35721 15.5098 8.29989 15.9466 8.26464C16.106 8.25185 16.1988 8.18696 16.2872 8.06346C16.506 7.75718 16.7443 7.46526 17.0129 7.19892C17.1314 7.08142 17.2673 7.00309 17.4401 7.00009C17.6715 6.99604 17.8808 7.13169 17.9665 7.34279C18.0537 7.5573 17.9977 7.80052 17.8255 7.95627C17.7913 7.98721 17.7583 8.0192 17.7107 8.06385C17.8532 8.04871 17.9764 8.03604 18.0994 8.02246C18.5457 7.97324 18.9921 7.92376 19.4383 7.87415C19.912 7.82141 20.3857 7.76814 20.8595 7.71553C21.2592 7.67114 21.6591 7.6278 22.0589 7.58367C22.5305 7.53158 23.0022 7.47896 23.4739 7.42661C23.8736 7.38222 24.2734 7.33757 24.6731 7.29358C24.9164 7.26681 25.1595 7.23796 25.4031 7.2155C25.7046 7.1877 25.9695 7.41382 25.9978 7.71749C26.0247 8.00654 25.8054 8.27352 25.5113 8.30642C24.7859 8.3875 24.0603 8.467 23.3349 8.54769C22.5567 8.63424 21.7784 8.72185 21 8.80814C20.2956 8.88621 19.5912 8.96285 18.8868 9.04053C18.2014 9.11612 17.5162 9.19263 16.8307 9.26704C16.7865 9.27187 16.7641 9.29394 16.7415 9.3271C16.1196 10.239 15.5532 11.1844 15.0248 12.1515C14.59 12.9475 14.1744 13.7537 13.7503 14.5556C13.7396 14.5759 13.7301 14.5968 13.7155 14.627C13.8399 14.6173 13.9569 14.6086 14.0738 14.5992C14.5787 14.5584 15.0835 14.5177 15.5884 14.4764C16.0296 14.4404 16.4711 14.4063 16.912 14.3669C17.2041 14.3408 17.4325 14.4562 17.5358 14.6924C17.6904 15.0459 17.4469 15.4294 17.0462 15.4617C16.2931 15.5226 15.5399 15.5826 14.7868 15.6433C14.2671 15.6853 13.7474 15.7289 13.2275 15.7682C13.1606 15.7732 13.1294 15.8011 13.1019 15.858C12.3232 17.4605 11.5768 19.078 10.8693 20.7124C10.3017 22.0236 9.75087 23.3419 9.19279 24.6571C9.08593 24.909 8.83077 25.0426 8.55951 24.9878C8.30343 24.9361 8.1137 24.7016 8.12307 24.4388C8.12558 24.3708 8.14101 24.2998 8.16687 24.2367C8.86889 22.5271 9.58859 20.8248 10.3501 19.1404C10.8329 18.0726 11.333 17.0123 11.8253 15.9487C11.8342 15.9295 11.8423 15.9103 11.8546 15.8824Z" fill="white"/>
</svg>
